<svg version="1.2" xmlns="http://www.w3.org/2000/svg" viewBox="0 0 172 65" width="172" height="65">
	<title>TVS GT LOGO (1)-svg</title>
	<style>
		.s0 { fill: #000000 } 
	</style>
	<g id="Layer">
		<g id="Layer">
			<g id="Layer">
				<path id="Layer" class="s0" d="m22.3 41.2h4.1v-28.8h10.9v-3.7h-25.9v3.7h10.9z"/>
			</g>
		</g>
	</g>
	<g id="Layer">
		<g id="Layer">
			<g id="Layer">
				<path id="Layer" class="s0" d="m64 8.7l-10 26.1-10-26.1h-4.5l12.9 32.5h3.2l12.9-32.5z"/>
			</g>
		</g>
	</g>
	<g id="Layer">
		<g id="Layer">
			<g id="Layer">
				<path id="Layer" class="s0" d="m83 41.5c6 0 10.7-3.7 10.7-9.4 0-10.7-16.3-8.3-16.3-15.4 0-2.8 2.3-4.7 5.3-4.7 2.7 0 4.8 1.2 6.2 3.8l3.3-2.1c-2.1-3.7-5.4-5.4-9.4-5.4-5.2 0-9.4 3.3-9.4 8.5 0 10.3 16.3 7.7 16.3 15.6 0 3.1-2.5 5.5-6.6 5.5-4 0-7.2-2.2-7.7-6.5l-4 1c1 5.9 6 9.1 11.6 9.1z"/>
			</g>
		</g>
	</g>
	<g id="Layer">
		<g id="Layer">
			<g id="Layer">
				<path id="Layer" class="s0" d="m18.8 47.4q0 0.2 0 0.2 0 0.1 0 0.2-0.1 0-0.1 0.1 0 0-0.1 0h-2.3v7q0 0 0 0.1 0 0-0.1 0 0 0-0.1 0.1-0.1 0-0.3 0-0.1 0-0.3 0-0.1-0.1-0.1-0.1-0.1 0-0.1 0 0-0.1 0-0.1v-7h-2.3q-0.1 0-0.1 0 0-0.1-0.1-0.1 0-0.1 0-0.2 0 0 0-0.2 0-0.1 0-0.2 0-0.1 0-0.1 0.1-0.1 0.1-0.1 0 0 0.1 0h5.6q0.1 0 0.1 0 0 0 0.1 0.1 0 0 0 0.1 0 0.1 0 0.2z"/>
			</g>
		</g>
	</g>
	<g id="Layer">
		<g id="Layer">
			<g id="Layer">
				<path id="Layer" class="s0" d="m23.3 54.9q-0.1 0-0.1 0.1 0 0-0.1 0-0.1 0.1-0.2 0.1-0.2 0-0.3 0-0.2 0-0.3 0-0.1 0-0.1 0-0.1-0.1-0.2-0.1 0 0-0.1 0 0 0 0-0.1 0 0-0.1 0l-2.6-7.6q-0.1-0.1-0.1-0.2 0-0.1 0.1-0.1 0 0 0.2-0.1 0.1 0 0.3 0 0.2 0 0.3 0 0.1 0 0.1 0.1 0.1 0 0.1 0 0.1 0.1 0.1 0.1l2.3 6.8 2.3-6.7q0-0.1 0-0.2 0 0 0.1 0 0.1-0.1 0.2-0.1 0.1 0 0.3 0 0.2 0 0.3 0 0.1 0.1 0.1 0.1 0.1 0 0.1 0.1 0 0.1-0.1 0.2z"/>
			</g>
		</g>
	</g>
	<g id="Layer">
		<g id="Layer">
			<g id="Layer">
				<path id="Layer" class="s0" d="m31.6 52.8q0 0.5-0.2 1-0.2 0.4-0.6 0.7-0.4 0.4-0.9 0.5-0.5 0.2-1.1 0.2-0.4 0-0.7-0.1-0.4-0.1-0.6-0.2-0.3-0.1-0.5-0.2-0.2-0.1-0.2-0.2-0.1 0-0.2-0.1 0-0.2 0-0.4 0-0.1 0-0.2 0-0.1 0.1-0.1 0-0.1 0-0.1 0.1 0 0.1 0 0.1 0 0.3 0.1 0.1 0.1 0.4 0.2 0.2 0.1 0.6 0.2 0.3 0.2 0.8 0.2 0.3 0 0.6-0.1 0.3-0.1 0.5-0.3 0.2-0.2 0.3-0.4 0.2-0.3 0.2-0.6 0-0.3-0.2-0.6-0.1-0.2-0.4-0.4-0.3-0.2-0.6-0.4-0.3-0.1-0.7-0.3-0.3-0.1-0.6-0.3-0.4-0.2-0.6-0.5-0.3-0.2-0.4-0.6-0.2-0.3-0.2-0.8 0-0.5 0.2-0.9 0.2-0.4 0.5-0.7 0.3-0.3 0.8-0.4 0.5-0.2 1-0.2 0.2 0 0.5 0.1 0.3 0 0.5 0.1 0.3 0.1 0.5 0.2 0.1 0.1 0.2 0.1 0.1 0.1 0.1 0.1 0 0.1 0 0.1 0 0.1 0 0.2 0 0 0 0.1 0 0.2 0 0.3 0 0 0 0.1 0 0.1-0.1 0.1 0 0 0 0-0.1 0-0.2-0.1-0.2-0.1-0.4-0.2-0.2-0.1-0.5-0.2-0.3-0.1-0.7-0.1-0.3 0-0.6 0.1-0.2 0.1-0.4 0.3-0.1 0.1-0.2 0.3-0.1 0.2-0.1 0.5 0 0.3 0.2 0.6 0.1 0.2 0.4 0.4 0.2 0.2 0.6 0.3 0.3 0.2 0.7 0.3 0.3 0.2 0.6 0.4 0.4 0.2 0.6 0.4 0.3 0.3 0.4 0.7 0.2 0.3 0.2 0.8z"/>
			</g>
		</g>
	</g>
	<g id="Layer">
		<g id="Layer">
			<g id="Layer">
			</g>
		</g>
	</g>
	<g id="Layer">
		<g id="Layer">
			<g id="Layer">
				<path id="Layer" class="s0" d="m42.1 48.1q0 0.1 0 0.2 0 0.1-0.1 0.1 0 0.1 0 0.1-0.1 0-0.1 0-0.1 0-0.3-0.1-0.1-0.1-0.4-0.2-0.3-0.2-0.7-0.3-0.4-0.1-1-0.1-0.7 0-1.2 0.2-0.5 0.3-0.9 0.7-0.4 0.4-0.6 1-0.2 0.6-0.2 1.3 0 0.8 0.2 1.4 0.3 0.6 0.6 1 0.4 0.4 1 0.6 0.5 0.2 1.1 0.2 0.4 0 0.8-0.1 0.4-0.1 0.7-0.2v-2.4h-1.9q-0.1 0-0.1-0.1-0.1-0.1-0.1-0.3 0-0.1 0-0.2 0-0.1 0.1-0.2 0 0 0 0 0.1-0.1 0.1-0.1h2.6q0 0 0.1 0.1 0.1 0 0.1 0 0.1 0.1 0.1 0.2 0.1 0.1 0.1 0.2v3q0 0.2-0.1 0.3 0 0.2-0.2 0.2-0.2 0.1-0.5 0.2-0.3 0.1-0.6 0.2-0.3 0.1-0.6 0.1-0.3 0.1-0.6 0.1-1 0-1.7-0.3-0.7-0.3-1.3-0.9-0.5-0.5-0.7-1.2-0.3-0.8-0.3-1.7 0-1 0.3-1.8 0.3-0.7 0.8-1.3 0.5-0.5 1.3-0.8 0.7-0.4 1.6-0.4 0.5 0 0.9 0.1 0.4 0.1 0.7 0.2 0.3 0.1 0.5 0.3 0.3 0.1 0.3 0.2 0.1 0.1 0.1 0.2 0.1 0.1 0.1 0.3z"/>
			</g>
		</g>
	</g>
	<g id="Layer">
		<g id="Layer">
			<g id="Layer">
				<path id="Layer" class="s0" d="m48.3 54.6q0 0.1 0 0.2 0 0.1-0.1 0.1 0 0.1-0.1 0.1 0 0.1 0 0h-3.6q-0.2 0-0.3 0-0.1-0.1-0.1-0.4v-7.5q0 0 0-0.1 0 0 0.1 0 0.1 0 0.2-0.1 0.1 0 0.2 0 0.2 0 0.3 0 0.1 0.1 0.1 0.1 0.1 0 0.1 0 0.1 0.1 0.1 0.1v7h2.9q0 0 0 0 0.1 0.1 0.1 0.1 0.1 0.1 0.1 0.2 0 0.1 0 0.2z"/>
			</g>
		</g>
	</g>
	<g id="Layer">
		<g id="Layer">
			<g id="Layer">
				<path id="Layer" fill-rule="evenodd" class="s0" d="m56.2 50.9q0 1-0.2 1.8-0.2 0.8-0.7 1.3-0.5 0.6-1.2 0.9-0.6 0.3-1.6 0.3-0.9 0-1.5-0.3-0.7-0.3-1.2-0.8-0.4-0.5-0.6-1.3-0.2-0.7-0.2-1.8 0-0.9 0.2-1.7 0.3-0.8 0.7-1.3 0.5-0.6 1.2-0.9 0.7-0.3 1.6-0.3 0.9 0 1.6 0.3 0.6 0.3 1 0.8 0.5 0.5 0.7 1.3 0.2 0.7 0.2 1.7zm-1.1 0.1q0-0.7-0.1-1.3-0.2-0.6-0.4-1-0.3-0.4-0.8-0.7-0.5-0.2-1.2-0.2-0.7 0-1.1 0.2-0.5 0.3-0.8 0.7-0.3 0.5-0.4 1.1-0.2 0.5-0.2 1.2 0 0.7 0.2 1.3 0.1 0.6 0.4 1 0.2 0.5 0.7 0.7 0.5 0.2 1.2 0.2 0.7 0 1.2-0.2 0.5-0.3 0.8-0.7 0.2-0.5 0.4-1.1 0.1-0.6 0.1-1.2z"/>
			</g>
		</g>
	</g>
	<g id="Layer">
		<g id="Layer">
			<g id="Layer">
				<path id="Layer" fill-rule="evenodd" class="s0" d="m63.3 52.7q0 0.4-0.1 0.7-0.1 0.4-0.3 0.6-0.2 0.3-0.4 0.5-0.3 0.2-0.6 0.3-0.3 0.1-0.7 0.2-0.3 0.1-0.8 0h-2.1q-0.1 0-0.3 0-0.1-0.1-0.1-0.4v-7.2q0-0.2 0.1-0.3 0.2-0.1 0.3-0.1h1.9q0.7 0 1.1 0.1 0.5 0.1 0.8 0.4 0.3 0.3 0.5 0.7 0.1 0.3 0.1 0.8 0 0.3 0 0.6-0.1 0.2-0.2 0.4-0.2 0.3-0.4 0.4-0.2 0.2-0.4 0.3 0.3 0.1 0.6 0.3 0.3 0.1 0.5 0.4 0.2 0.2 0.3 0.6 0.1 0.3 0.2 0.7zm-1.7-3.6q0-0.3-0.1-0.5 0-0.3-0.2-0.4-0.2-0.2-0.5-0.3-0.2-0.1-0.7-0.1h-1.1v2.7h1.2q0.4 0 0.7-0.2 0.2-0.1 0.4-0.3 0.2-0.1 0.2-0.4 0.1-0.2 0.1-0.5zm0.5 3.7q0-0.4-0.1-0.6-0.1-0.3-0.3-0.5-0.3-0.2-0.6-0.3-0.3-0.1-0.8-0.1h-1.3v2.9h1.5q0.4 0 0.7-0.1 0.3-0.1 0.5-0.3 0.2-0.2 0.3-0.4 0.1-0.3 0.1-0.6z"/>
			</g>
		</g>
	</g>
	<g id="Layer">
		<g id="Layer">
			<g id="Layer">
				<path id="Layer" fill-rule="evenodd" class="s0" d="m70.9 54.7q0.1 0.1 0.1 0.2 0 0.1-0.1 0.1 0 0.1-0.1 0.1-0.1 0-0.3 0-0.2 0-0.4 0-0.1 0-0.1-0.1-0.1 0-0.1 0 0 0-0.1-0.1l-0.7-2h-3.3l-0.7 2q0 0 0 0.1-0.1 0-0.1 0-0.1 0.1-0.2 0.1-0.1 0-0.3 0-0.2 0-0.3 0-0.1 0-0.1-0.1-0.1 0-0.1-0.1 0-0.1 0.1-0.2l2.7-7.5q0-0.1 0-0.2 0.1 0 0.2 0 0-0.1 0.2-0.1 0.1 0 0.3 0 0.2 0 0.3 0 0.1 0 0.2 0.1 0.1 0 0.1 0 0.1 0.1 0.1 0.2zm-3.4-6.7h-0.1l-1.4 4h2.9z"/>
			</g>
		</g>
	</g>
	<g id="Layer">
		<g id="Layer">
			<g id="Layer">
				<path id="Layer" class="s0" d="m76.5 54.6q0 0.1-0.1 0.2 0 0.1 0 0.1 0 0.1-0.1 0.1 0 0.1-0.1 0h-3.5q-0.2 0-0.3 0-0.1-0.1-0.1-0.4v-7.5q0 0 0-0.1 0 0 0.1 0 0 0 0.2-0.1 0.1 0 0.2 0 0.2 0 0.3 0 0.1 0.1 0.1 0.1 0.1 0 0.1 0 0.1 0.1 0.1 0.1v7h2.8q0.1 0 0.1 0 0.1 0.1 0.1 0.1 0 0.1 0 0.2 0.1 0.1 0.1 0.2z"/>
			</g>
		</g>
	</g>
	<g id="Layer">
		<g id="Layer">
			<g id="Layer">
			</g>
		</g>
	</g>
	<g id="Layer">
		<g id="Layer">
			<g id="Layer">
				<path id="Layer" class="s0" d="m85.6 47.4q0 0.2 0 0.2 0 0.1 0 0.2-0.1 0-0.1 0.1-0.1 0-0.1 0h-2.3v7q0 0 0 0.1 0 0-0.1 0-0.1 0-0.2 0.1-0.1 0-0.2 0-0.2 0-0.3 0-0.1-0.1-0.2-0.1 0 0 0 0-0.1-0.1-0.1-0.1v-7h-2.2q-0.1 0-0.1 0-0.1-0.1-0.1-0.1 0-0.1 0-0.2 0 0 0-0.2 0-0.1 0-0.2 0-0.1 0-0.1 0-0.1 0.1-0.1 0 0 0.1 0h5.6q0 0 0.1 0 0 0 0.1 0.1 0 0 0 0.1 0 0.1 0 0.2z"/>
			</g>
		</g>
	</g>
	<g id="Layer">
		<g id="Layer">
			<g id="Layer">
				<path id="Layer" fill-rule="evenodd" class="s0" d="m92.2 54.9q0 0-0.1 0.1 0 0 0 0-0.1 0.1-0.2 0.1-0.1 0-0.3 0-0.2 0-0.3 0-0.1 0-0.1-0.1-0.1 0-0.1 0-0.1-0.1-0.1-0.2l-0.7-1.9q-0.2-0.3-0.3-0.6-0.2-0.3-0.4-0.4-0.1-0.2-0.4-0.4-0.3-0.1-0.6-0.1h-0.8v3.5q0 0 0 0.1 0 0-0.1 0 0 0-0.1 0.1-0.1 0-0.3 0-0.2 0-0.3 0-0.1-0.1-0.1-0.1-0.1 0-0.1 0 0-0.1 0-0.1v-7.5q0-0.2 0.1-0.3 0.1-0.1 0.3-0.1h1.7q0.3 0 0.5 0 0.2 0 0.4 0 0.4 0.1 0.8 0.3 0.3 0.1 0.6 0.4 0.2 0.3 0.4 0.6 0.1 0.4 0.1 0.8 0 0.4-0.1 0.7-0.1 0.3-0.3 0.6-0.3 0.2-0.5 0.4-0.3 0.2-0.7 0.3 0.2 0.1 0.4 0.2 0.1 0.2 0.3 0.4 0.1 0.2 0.3 0.4 0.1 0.2 0.2 0.5l0.7 1.8q0.1 0.3 0.1 0.4 0.1 0 0.1 0.1zm-1.7-5.7q0-0.5-0.2-0.8-0.2-0.3-0.7-0.5-0.1 0-0.3 0-0.2-0.1-0.5-0.1h-1v2.8h1.1q0.4 0 0.7-0.1 0.3-0.1 0.5-0.3 0.2-0.2 0.3-0.4 0.1-0.3 0.1-0.6z"/>
			</g>
		</g>
	</g>
	<g id="Layer">
		<g id="Layer">
			<g id="Layer">
				<path id="Layer" fill-rule="evenodd" class="s0" d="m99.8 54.7q0 0.1 0 0.2 0 0.1 0 0.1-0.1 0.1-0.2 0.1-0.1 0-0.3 0-0.2 0-0.3 0-0.1 0-0.2-0.1 0 0-0.1 0 0 0 0-0.1l-0.7-2h-3.4l-0.7 2q0 0 0 0.1 0 0-0.1 0 0 0.1-0.2 0.1-0.1 0-0.2 0-0.2 0-0.3 0-0.2 0-0.2-0.1 0 0 0-0.1 0-0.1 0-0.2l2.7-7.5q0-0.1 0.1-0.2 0 0 0.1 0 0.1-0.1 0.2-0.1 0.1 0 0.3 0 0.2 0 0.3 0 0.2 0 0.3 0.1 0 0 0.1 0 0 0.1 0.1 0.2zm-3.5-6.7l-1.4 4h2.8z"/>
			</g>
		</g>
	</g>
	<g id="Layer">
		<g id="Layer">
			<g id="Layer">
				<path id="Layer" fill-rule="evenodd" class="s0" d="m107.3 50.9q0 1-0.3 1.8-0.2 0.8-0.7 1.3-0.5 0.5-1.3 0.8-0.7 0.3-1.8 0.2h-1.7q-0.1 0-0.3 0-0.1-0.1-0.1-0.4v-7.2q0-0.2 0.1-0.3 0.2-0.1 0.3-0.1h1.8q1.1 0 1.8 0.2 0.7 0.3 1.2 0.8 0.5 0.5 0.8 1.3 0.2 0.7 0.2 1.6zm-1.1 0q0-0.6-0.2-1.2-0.1-0.6-0.5-1-0.3-0.4-0.9-0.6-0.5-0.2-1.3-0.2h-1.1v6.2h1.1q0.8 0 1.3-0.1 0.5-0.2 0.9-0.6 0.3-0.4 0.5-1 0.2-0.6 0.2-1.5z"/>
			</g>
		</g>
	</g>
	<g id="Layer">
		<g id="Layer">
			<g id="Layer">
				<path id="Layer" class="s0" d="m113.5 54.6q0 0.1 0 0.2-0.1 0.1-0.1 0.2 0 0-0.1 0 0 0.1 0 0h-3.9q-0.2 0-0.3 0-0.1-0.1-0.1-0.4v-7.2q0-0.2 0.1-0.3 0.1-0.1 0.3-0.1h3.8q0.1 0 0.1 0 0 0 0.1 0.1 0 0 0 0.1 0 0.1 0 0.2 0 0.1 0 0.2 0 0.1 0 0.2-0.1 0-0.1 0 0 0.1-0.1 0.1h-3.1v2.5h2.7q0 0 0.1 0 0 0.1 0 0.1 0 0 0.1 0.1 0 0.1 0 0.2 0 0.2 0 0.2-0.1 0.1-0.1 0.2 0 0 0 0.1-0.1 0-0.1 0h-2.7v2.9h3.2q0 0 0 0 0.1 0 0.1 0.1 0 0 0.1 0.1 0 0.1 0 0.2z"/>
			</g>
		</g>
	</g>
	<g id="Layer">
		<g id="Layer">
			<g id="Layer">
			</g>
		</g>
	</g>
	<g id="Layer">
		<g id="Layer">
			<g id="Layer">
				<path id="Layer" fill-rule="evenodd" class="s0" d="m123.1 49.3q0 0.6-0.2 1.1-0.2 0.5-0.6 0.9-0.4 0.3-0.9 0.5-0.6 0.2-1.3 0.2h-0.9v2.9q0 0 0 0.1-0.1 0-0.1 0-0.1 0-0.2 0.1-0.1 0-0.3 0-0.1 0-0.2 0-0.1-0.1-0.2-0.1 0 0-0.1 0 0-0.1 0-0.1v-7.5q0-0.2 0.1-0.3 0.2-0.1 0.3-0.1h1.8q0.2 0 0.5 0 0.2 0 0.5 0.1 0.4 0.1 0.7 0.3 0.3 0.2 0.6 0.4 0.2 0.3 0.3 0.7 0.2 0.4 0.2 0.8zm-1.2 0.1q0-0.5-0.2-0.8-0.1-0.3-0.4-0.5-0.3-0.2-0.6-0.2-0.2-0.1-0.5-0.1h-1v3.3h1q0.4 0 0.8-0.1 0.3-0.2 0.5-0.4 0.2-0.2 0.3-0.5 0.1-0.3 0.1-0.7z"/>
			</g>
		</g>
	</g>
	<g id="Layer">
		<g id="Layer">
			<g id="Layer">
				<path id="Layer" class="s0" d="m128 54.9q-0.1 0-0.1 0.1 0 0-0.1 0-0.1 0.1-0.2 0.1-0.1 0-0.3 0-0.2 0-0.3 0-0.1 0-0.1 0-0.1-0.1-0.2-0.1 0 0-0.1 0 0 0 0-0.1 0 0-0.1 0l-2.6-7.6q0-0.1 0-0.2 0-0.1 0-0.1 0.1 0 0.2-0.1 0.1 0 0.3 0 0.2 0 0.3 0 0.1 0 0.2 0.1 0 0 0 0 0.1 0.1 0.1 0.1l2.3 6.8 2.3-6.7q0-0.1 0-0.2 0 0 0.1 0 0.1-0.1 0.2-0.1 0.1 0 0.3 0 0.2 0 0.3 0 0.1 0.1 0.1 0.1 0.1 0 0.1 0.1 0 0.1-0.1 0.2z"/>
			</g>
		</g>
	</g>
	<g id="Layer">
		<g id="Layer">
			<g id="Layer">
				<path id="Layer" class="s0" d="m137 47.4q0 0.2 0 0.2 0 0.1 0 0.2-0.1 0-0.1 0.1 0 0-0.1 0h-2.3v7q0 0 0 0.1 0 0-0.1 0 0 0-0.1 0.1-0.1 0-0.3 0-0.1 0-0.3 0-0.1-0.1-0.1-0.1-0.1 0-0.1 0 0-0.1 0-0.1v-7h-2.3q-0.1 0-0.1 0 0-0.1-0.1-0.1 0-0.1 0-0.2 0 0 0-0.2 0-0.1 0-0.2 0-0.1 0-0.1 0.1-0.1 0.1-0.1 0 0 0.1 0h5.6q0.1 0 0.1 0 0 0 0.1 0.1 0 0 0 0.1 0 0.1 0 0.2z"/>
			</g>
		</g>
	</g>
	<g id="Layer">
		<g id="Layer">
			<g id="Layer">
			</g>
		</g>
	</g>
	<g id="Layer">
		<g id="Layer">
			<g id="Layer">
				<path id="Layer" class="s0" d="m145.3 54.6q0 0.1 0 0.2 0 0.1-0.1 0.1 0 0.1 0 0.1-0.1 0.1-0.1 0h-3.6q-0.2 0-0.3 0-0.1-0.1-0.1-0.4v-7.5q0 0 0-0.1 0 0 0.1 0 0.1 0 0.2-0.1 0.1 0 0.2 0 0.2 0 0.3 0 0.1 0.1 0.1 0.1 0.1 0 0.1 0 0.1 0.1 0.1 0.1v7h2.9q0 0 0.1 0 0 0.1 0 0.1 0.1 0.1 0.1 0.2 0 0.1 0 0.2z"/>
			</g>
		</g>
	</g>
	<g id="Layer">
		<g id="Layer">
			<g id="Layer">
				<path id="Layer" class="s0" d="m151.5 47.4q0 0.2 0 0.2 0 0.1 0 0.2-0.1 0-0.1 0.1 0 0-0.1 0h-2.3v7q0 0 0 0.1 0 0-0.1 0 0 0-0.1 0.1-0.1 0-0.3 0-0.1 0-0.3 0-0.1-0.1-0.1-0.1-0.1 0-0.1 0 0-0.1 0-0.1v-7h-2.3q-0.1 0-0.1 0 0-0.1-0.1-0.1 0-0.1 0-0.2 0 0 0-0.2 0-0.1 0-0.2 0-0.1 0-0.1 0.1-0.1 0.1-0.1 0 0 0.1 0h5.6q0.1 0 0.1 0 0 0 0.1 0.1 0 0 0 0.1 0 0.1 0 0.2z"/>
			</g>
		</g>
	</g>
	<g id="Layer">
		<g id="Layer">
			<g id="Layer">
				<path id="Layer" fill-rule="evenodd" class="s0" d="m158.9 50.9q0 1-0.3 1.8-0.2 0.8-0.8 1.3-0.5 0.5-1.2 0.8-0.8 0.3-1.8 0.2h-1.7q-0.2 0-0.3 0-0.1-0.1-0.1-0.4v-7.2q0-0.2 0.1-0.3 0.1-0.1 0.3-0.1h1.8q1.1 0 1.8 0.2 0.7 0.3 1.2 0.8 0.5 0.5 0.7 1.3 0.3 0.7 0.3 1.6zm-1.1 0q0-0.6-0.2-1.2-0.1-0.6-0.5-1-0.3-0.4-0.9-0.6-0.5-0.2-1.3-0.2h-1.1v6.2h1.1q0.7 0 1.3-0.1 0.5-0.2 0.9-0.6 0.3-0.4 0.5-1 0.2-0.6 0.2-1.5z"/>
			</g>
		</g>
	</g>
	<g id="Layer">
		<g id="Layer">
			<g id="Layer">
				<path id="Layer" class="s0" d="m119.3 28.3h7.1c-1.4 5.2-5.8 8.1-11 8.1-5.3 0-7.4-3-7.4-7.7 0-7.6 5.5-15.4 13.5-15.4 3.8 0 6.7 1.7 7.2 6.2l5.4-1.7c-1.2-6.1-5.6-9.6-12.3-9.6-11.2 0-19.5 9.9-19.5 20.8 0 7.3 3.8 12.6 12.2 12.6 4.7 0 8.3-1.6 10.9-4.8l-0.6 4.4h4.6l4.1-17.6h-13.1z"/>
			</g>
		</g>
	</g>
	<g id="Layer">
		<g id="Layer">
			<g id="Layer">
				<path id="Layer" class="s0" d="m142.9 41.2h5.8l6.3-27.3h10.1l1.2-5.2h-26.1l-1.2 5.2h10.2z"/>
			</g>
		</g>
	</g>
</svg>